# xmcd
#
# Track frame offsets:
#	150
#	15903
#	31415
#	47660
#	61536
#	76396
#	95179
#	111547
#	129654
#	145903
#	166204
#	183962
#	204418
#	217869
#	231878
#	247433
#	261257
#	281637
#
# Disc length: 3922 seconds
#
# Revision: 0
# Processed by: cddbd v1.5.2PL0 Copyright (c) Steve Scherf et al.
# Submitted via: audiograbber 1.83.01
#
DISCID=030f5012
DTITLE=Various Artist - There's More To Country - Disc 1
DYEAR=1900
DGENRE=Country
TTITLE0=Big and Rich - Comin' To Your City
TTITLE1=Kenny Chesney - Summertime
TTITLE2=Lee Kernaghan - Love Shack
TTITLE3=Emerson Drive - A Good Man
TTITLE4=Steve Forde - Rodeo Freak
TTITLE5=Montgomery Gentry - Gone
TTITLE6=Faith Hill - The Lucky One
TTITLE7=Lonestar - You're Like Comin' Home
TTITLE8=Jack Ingram - Wherever You Are
TTITLE9=Travis Collins - Start The Car
TTITLE10=Adam Brand - Get Loud
TTITLE11=Primal Scream - Country Girl
TTITLE12=Shooter Jennings - Steady At The Wheel
TTITLE13=Miranda Lambert - Kerosene
TTITLE14=Harley Smith - Yeah Right
TTITLE15=James Blundell - 24 Hour Love Affair
TTITLE16=Frazier River - Everthing About You
TTITLE17=Luke O'Shea and Medicine Wheel - Making Memories
EXTD=
EXTT0=
EXTT1=
EXTT2=
EXTT3=
EXTT4=
EXTT5=
EXTT6=
EXTT7=
EXTT8=
EXTT9=
EXTT10=
EXTT11=
EXTT12=
EXTT13=
EXTT14=
EXTT15=
EXTT16=
EXTT17=
PLAYORDER=
